<svg width="117" height="128" viewBox="0 0 117 128" fill="none" xmlns="http://www.w3.org/2000/svg">
<path fill-rule="evenodd" clip-rule="evenodd" d="M73.8866 1.45615C72.6045 -0.0684756 70.4677 -0.434386 68.7582 0.541374L67.1709 1.39516L49.8932 11.2137L53.9226 18.288L65.1562 11.8846L62.4088 26.8869L70.4066 28.3505L73.215 13.2872L81.5181 23.1668L87.7453 17.9221L75.1687 2.91979H75.1076L73.8866 1.45615ZM49.649 128C53.8005 128 57.1584 124.707 57.1584 120.682C57.1584 116.657 53.8005 113.364 49.649 113.364C45.4975 113.364 42.1396 116.657 42.1396 120.682C42.0786 124.707 45.4975 128 49.649 128ZM59.7226 87.8109L57.0363 102.874L48.9774 101.411L51.6637 86.4082L40.4302 92.8727L36.3397 85.7984L53.4953 75.9798L55.0826 75.065C56.7921 74.0893 58.9289 74.4552 60.211 75.9798L61.432 77.4435L74.1918 92.3848L67.9646 97.6905L59.7226 87.8109ZM66.2551 51.8298L63.5688 66.893L55.51 65.4294L58.1963 50.4881L47.0238 56.8915L42.9944 49.8172L60.0889 40.0596V39.9377H60.211L61.7983 39.0229C63.5078 38.0471 65.6446 38.4131 66.9267 39.9377L68.1477 41.3403L80.8465 56.3426L74.6192 61.6483L66.2551 51.8298ZM13.5674 111.351H13.5064L11.858 110.863C10.0875 110.375 8.92747 108.668 9.04958 106.838L10.5148 86.4692L18.2684 87.0181L17.3526 99.398L29.3798 91.2261L33.7145 97.6295L21.9315 105.619L33.9587 109.095L31.8219 116.535L13.5674 111.351ZM93.3621 119.767L92.8126 121.536C92.2632 123.243 90.6758 124.402 88.8443 124.28L87.1348 124.158L87.0127 124.219L86.9517 124.158L68.0256 122.877L68.514 115.132L81.0907 115.986L72.8487 104.46L79.137 99.9469L87.5622 111.778L91.2253 99.8249L98.6126 102.081L93.3621 119.767ZM115.585 77.8094L116.501 79.456C117.417 81.1026 117.05 83.176 115.585 84.3957L114.242 85.5545V85.6154H114.181L99.4673 98.0564L94.3389 92.0189L103.985 83.8469L89.5158 81.2855L90.92 73.4794L105.511 76.0408L99.4062 65.0635L106.305 61.2214L115.585 77.8094ZM100.627 43.7797L87.5622 50.793L83.777 43.8407L96.6589 36.9494L84.8759 32.1316L87.8674 24.8134L105.817 32.0706L105.878 32.0096L105.939 32.1316L107.587 32.8024C109.358 33.5343 110.334 35.3638 110.029 37.1934L109.724 39.0229L106.366 57.6233L98.5515 56.2207L100.627 43.7797ZM12.9569 60.1237L27.4872 62.5631L26.1441 70.3692L11.4916 67.8688L17.7189 78.8461L10.8201 82.7491L1.41811 66.2222L0.502329 64.6366C-0.413448 62.99 -0.0471373 60.9165 1.35705 59.6968L2.70019 58.5381V58.4771H2.76124L17.2916 45.9752L22.481 52.0127L12.9569 60.1237ZM34.8745 26.338L44.5207 37.0714L38.5986 42.3771L28.7083 31.3998L26.4493 43.9017L18.6347 42.499L22.0536 23.9596L22.4199 22.0691C22.7252 20.2395 24.3125 18.8979 26.1441 18.8369L27.8535 18.7759L27.9146 18.7149L27.9756 18.7759L47.3901 17.9831L47.6954 25.9111L34.8745 26.338Z" fill="black"/>
</svg>
